<?xml version="1.0" encoding="utf-8"?>
<svg width="26" height="28" viewBox="0 0 26 28" fill="none" xmlns="http://www.w3.org/2000/svg">
  <path
    d="M8.09952 14.0544C8.09952 7.97644 12.2828 2.84714 18.0109 1.2113C16.7695 0.85684 15.456 0.663086 14.0958 0.663086C6.4598 0.663086 0.269531 6.65863 0.269531 14.0544C0.269531 21.4506 6.45985 27.4457 14.0959 27.4457C15.4556 27.4457 16.7695 27.2523 18.0109 26.8979C12.2824 25.2624 8.09952 20.1327 8.09952 14.0544Z"
    fill="#FCFCFC"
  />
  <path
    opacity="0.8"
    d="M18.4187 8.8459C21.7941 8.8459 24.6432 11.0253 25.5514 14.0099C25.748 13.3633 25.8555 12.6787 25.8555 11.9702C25.8555 7.99263 22.526 4.76825 18.4187 4.76782C14.3114 4.76782 10.9814 7.99221 10.9814 11.9698C10.9814 12.6783 11.0895 13.3629 11.2865 14.0095C12.1952 11.0253 15.0438 8.84633 18.4187 8.8459V8.8459Z"
    fill="#FCFCFC"
  />
  <path
    opacity="0.5"
    d="M21.0226 16.3772C21.0226 18.8086 19.3483 20.8608 17.0566 21.5149C17.5531 21.6567 18.0785 21.7341 18.6234 21.7341C21.6772 21.7341 24.1543 19.3358 24.1543 16.3768C24.1543 13.4178 21.6785 11.019 18.6234 11.019C18.0798 11.019 17.5531 11.096 17.0566 11.2384C19.3483 11.8928 21.0226 13.9451 21.0226 16.3772V16.3772Z"
    fill="#FCFCFC"
  />
</svg>