<svg width="60" height="60" viewBox="0 0 60 60" fill="none" xmlns="http://www.w3.org/2000/svg">
<rect width="60" height="60" rx="20" fill="#1F4EF5"/>
<path d="M25.0995 29.9982C25.0995 23.7228 29.2828 18.4269 35.0109 16.7379C33.7695 16.3719 32.456 16.1719 31.0958 16.1719C23.4598 16.1719 17.2695 22.3622 17.2695 29.9982C17.2695 37.6347 23.4599 43.8246 31.0959 43.8246C32.4556 43.8246 33.7695 43.6249 35.0109 43.259C29.2824 41.5704 25.0995 36.2741 25.0995 29.9982Z" fill="#FCFCFC"/>
<path opacity="0.8" d="M35.4178 24.6205C38.7931 24.6205 41.6422 26.8707 42.5504 29.9522C42.747 29.2847 42.8546 28.5778 42.8546 27.8463C42.8546 23.7395 39.525 20.4104 35.4177 20.4099C31.3104 20.4099 27.9805 23.739 27.9805 27.8459C27.9805 28.5774 28.0885 29.2842 28.2855 29.9518C29.1942 26.8707 32.0428 24.6209 35.4178 24.6205Z" fill="#FCFCFC"/>
<path opacity="0.5" d="M38.0226 32.3965C38.0226 34.9069 36.3483 37.0257 34.0566 37.7011C34.5531 37.8475 35.0785 37.9274 35.6234 37.9274C38.6772 37.9274 41.1543 35.4512 41.1543 32.3961C41.1543 29.3409 38.6785 26.8643 35.6234 26.8643C35.0798 26.8643 34.5531 26.9437 34.0566 27.0907C36.3483 27.7664 38.0226 29.8853 38.0226 32.3965Z" fill="#FCFCFC"/>
</svg>
